<mxfile host="app.diagrams.net" modified="2021-12-05T12:35:19.264Z" agent="5.0 (Windows NT 10.0; Win64; x64) AppleWebKit/537.36 (KHTML, like Gecko) Chrome/95.0.4638.54 Safari/537.36" etag="20l6ZHXldGAB0dro5K2A" version="15.5.9" type="github">
  <diagram id="nA1KlQu5R7dvw4KN0G8D" name="Page-1">
    <mxGraphModel dx="1422" dy="762" grid="1" gridSize="10" guides="1" tooltips="1" connect="1" arrows="1" fold="1" page="1" pageScale="1" pageWidth="2000" pageHeight="10000" math="0" shadow="0">
      <root>
        <mxCell id="0" />
        <mxCell id="1" parent="0" />
        <mxCell id="SPcnOODWbMuNbma2HMpf-1" value="" style="edgeStyle=orthogonalEdgeStyle;curved=0;sketch=0;orthogonalLoop=1;jettySize=auto;html=1;startArrow=blockThin;startFill=0;endArrow=none;endFill=0;startSize=16;endSize=6;targetPerimeterSpacing=0;" edge="1" parent="1" source="SPcnOODWbMuNbma2HMpf-4" target="SPcnOODWbMuNbma2HMpf-10">
          <mxGeometry relative="1" as="geometry" />
        </mxCell>
        <mxCell id="SPcnOODWbMuNbma2HMpf-2" style="edgeStyle=orthogonalEdgeStyle;curved=0;sketch=0;orthogonalLoop=1;jettySize=auto;html=1;exitX=0.25;exitY=1;exitDx=0;exitDy=0;entryX=0.583;entryY=0.02;entryDx=0;entryDy=0;entryPerimeter=0;startArrow=blockThin;startFill=0;endArrow=none;endFill=0;startSize=16;endSize=6;targetPerimeterSpacing=0;" edge="1" parent="1" source="SPcnOODWbMuNbma2HMpf-4" target="SPcnOODWbMuNbma2HMpf-12">
          <mxGeometry relative="1" as="geometry" />
        </mxCell>
        <mxCell id="SPcnOODWbMuNbma2HMpf-3" style="edgeStyle=orthogonalEdgeStyle;curved=0;sketch=0;orthogonalLoop=1;jettySize=auto;html=1;exitX=0.75;exitY=1;exitDx=0;exitDy=0;startArrow=blockThin;startFill=0;endArrow=none;endFill=0;startSize=16;endSize=6;targetPerimeterSpacing=0;" edge="1" parent="1" source="SPcnOODWbMuNbma2HMpf-4" target="SPcnOODWbMuNbma2HMpf-14">
          <mxGeometry relative="1" as="geometry" />
        </mxCell>
        <mxCell id="SPcnOODWbMuNbma2HMpf-4" value="&lt;font color=&quot;#3399ff&quot;&gt;FRenderResource&lt;/font&gt;" style="whiteSpace=wrap;html=1;fillColor=#CCFFCC;" vertex="1" parent="1">
          <mxGeometry x="653" y="2080" width="120" height="60" as="geometry" />
        </mxCell>
        <mxCell id="SPcnOODWbMuNbma2HMpf-5" value="" style="edgeStyle=orthogonalEdgeStyle;curved=0;sketch=0;orthogonalLoop=1;jettySize=auto;html=1;startArrow=blockThin;startFill=0;endArrow=none;endFill=0;startSize=16;endSize=6;targetPerimeterSpacing=0;" edge="1" parent="1" source="SPcnOODWbMuNbma2HMpf-8" target="SPcnOODWbMuNbma2HMpf-15">
          <mxGeometry relative="1" as="geometry" />
        </mxCell>
        <mxCell id="SPcnOODWbMuNbma2HMpf-6" style="edgeStyle=orthogonalEdgeStyle;curved=0;sketch=0;orthogonalLoop=1;jettySize=auto;html=1;exitX=0.25;exitY=0;exitDx=0;exitDy=0;entryX=0.5;entryY=1;entryDx=0;entryDy=0;startArrow=blockThin;startFill=0;endArrow=none;endFill=0;startSize=16;endSize=6;targetPerimeterSpacing=0;" edge="1" parent="1" source="SPcnOODWbMuNbma2HMpf-8" target="SPcnOODWbMuNbma2HMpf-16">
          <mxGeometry relative="1" as="geometry" />
        </mxCell>
        <mxCell id="SPcnOODWbMuNbma2HMpf-7" style="edgeStyle=orthogonalEdgeStyle;curved=0;sketch=0;orthogonalLoop=1;jettySize=auto;html=1;exitX=0.75;exitY=0;exitDx=0;exitDy=0;entryX=0.5;entryY=1;entryDx=0;entryDy=0;startArrow=blockThin;startFill=0;endArrow=none;endFill=0;startSize=16;endSize=6;targetPerimeterSpacing=0;" edge="1" parent="1" source="SPcnOODWbMuNbma2HMpf-8" target="SPcnOODWbMuNbma2HMpf-17">
          <mxGeometry relative="1" as="geometry" />
        </mxCell>
        <mxCell id="SPcnOODWbMuNbma2HMpf-8" value="FRHIResource" style="whiteSpace=wrap;html=1;fillColor=#FFE6CC;" vertex="1" parent="1">
          <mxGeometry x="653" y="2445" width="120" height="60" as="geometry" />
        </mxCell>
        <mxCell id="SPcnOODWbMuNbma2HMpf-9" value="" style="edgeStyle=orthogonalEdgeStyle;curved=0;sketch=0;orthogonalLoop=1;jettySize=auto;html=1;startArrow=diamondThin;startFill=0;endArrow=none;endFill=0;startSize=16;endSize=6;targetPerimeterSpacing=0;" edge="1" parent="1" source="SPcnOODWbMuNbma2HMpf-10" target="SPcnOODWbMuNbma2HMpf-15">
          <mxGeometry relative="1" as="geometry" />
        </mxCell>
        <mxCell id="SPcnOODWbMuNbma2HMpf-10" value="&lt;font color=&quot;#3399ff&quot;&gt;FIndexBuffer&lt;/font&gt;" style="whiteSpace=wrap;html=1;" vertex="1" parent="1">
          <mxGeometry x="653" y="2200" width="120" height="50" as="geometry" />
        </mxCell>
        <mxCell id="SPcnOODWbMuNbma2HMpf-11" value="" style="edgeStyle=orthogonalEdgeStyle;curved=0;sketch=0;orthogonalLoop=1;jettySize=auto;html=1;startArrow=diamondThin;startFill=0;endArrow=none;endFill=0;startSize=16;endSize=6;targetPerimeterSpacing=0;" edge="1" parent="1" source="SPcnOODWbMuNbma2HMpf-12" target="SPcnOODWbMuNbma2HMpf-16">
          <mxGeometry relative="1" as="geometry" />
        </mxCell>
        <mxCell id="SPcnOODWbMuNbma2HMpf-12" value="&lt;font color=&quot;#3399ff&quot;&gt;FVertexBuffer&lt;/font&gt;" style="whiteSpace=wrap;html=1;fillColor=#66FFB3;" vertex="1" parent="1">
          <mxGeometry x="480" y="2200" width="120" height="50" as="geometry" />
        </mxCell>
        <mxCell id="SPcnOODWbMuNbma2HMpf-13" value="" style="edgeStyle=orthogonalEdgeStyle;curved=0;sketch=0;orthogonalLoop=1;jettySize=auto;html=1;startArrow=diamondThin;startFill=0;endArrow=none;endFill=0;startSize=16;endSize=6;targetPerimeterSpacing=0;" edge="1" parent="1" source="SPcnOODWbMuNbma2HMpf-14" target="SPcnOODWbMuNbma2HMpf-17">
          <mxGeometry relative="1" as="geometry" />
        </mxCell>
        <mxCell id="SPcnOODWbMuNbma2HMpf-14" value="&lt;font color=&quot;#3399ff&quot;&gt;FTexture&lt;/font&gt;" style="whiteSpace=wrap;html=1;fillColor=#66FFB3;" vertex="1" parent="1">
          <mxGeometry x="829" y="2200" width="120" height="50" as="geometry" />
        </mxCell>
        <mxCell id="SPcnOODWbMuNbma2HMpf-15" value="FRHIIndexBuffer" style="whiteSpace=wrap;html=1;fillColor=#FFB366;" vertex="1" parent="1">
          <mxGeometry x="653" y="2330" width="120" height="50" as="geometry" />
        </mxCell>
        <mxCell id="SPcnOODWbMuNbma2HMpf-16" value="FRHIVertexBuffer" style="whiteSpace=wrap;html=1;fillColor=#FFB366;" vertex="1" parent="1">
          <mxGeometry x="480" y="2330" width="120" height="50" as="geometry" />
        </mxCell>
        <mxCell id="SPcnOODWbMuNbma2HMpf-17" value="FRHITexture" style="whiteSpace=wrap;html=1;fillColor=#FFB366;" vertex="1" parent="1">
          <mxGeometry x="829" y="2330" width="120" height="50" as="geometry" />
        </mxCell>
        <mxCell id="SPcnOODWbMuNbma2HMpf-18" value="&lt;font color=&quot;#3399ff&quot;&gt;FIndexBuffer&lt;/font&gt;" style="whiteSpace=wrap;html=1;fillColor=#66FFB3;" vertex="1" parent="1">
          <mxGeometry x="653" y="2200" width="120" height="50" as="geometry" />
        </mxCell>
        <mxCell id="SPcnOODWbMuNbma2HMpf-19" value="" style="endArrow=none;html=1;sketch=0;startSize=16;endSize=6;targetPerimeterSpacing=0;curved=0;" edge="1" parent="1">
          <mxGeometry width="50" height="50" relative="1" as="geometry">
            <mxPoint x="488" y="2520" as="sourcePoint" />
            <mxPoint x="958" y="2520" as="targetPoint" />
          </mxGeometry>
        </mxCell>
        <mxCell id="SPcnOODWbMuNbma2HMpf-20" value="D3D11" style="whiteSpace=wrap;html=1;fillColor=#CCCCCC;" vertex="1" parent="1">
          <mxGeometry x="488" y="2540" width="80" height="30" as="geometry" />
        </mxCell>
        <mxCell id="SPcnOODWbMuNbma2HMpf-21" value="OpenGL" style="whiteSpace=wrap;html=1;fillColor=#CCCCCC;" vertex="1" parent="1">
          <mxGeometry x="674" y="2540" width="80" height="30" as="geometry" />
        </mxCell>
        <mxCell id="SPcnOODWbMuNbma2HMpf-22" value="Vulkan" style="whiteSpace=wrap;html=1;fillColor=#CCCCCC;" vertex="1" parent="1">
          <mxGeometry x="769" y="2540" width="80" height="30" as="geometry" />
        </mxCell>
        <mxCell id="SPcnOODWbMuNbma2HMpf-23" value="Metal" style="whiteSpace=wrap;html=1;fillColor=#CCCCCC;" vertex="1" parent="1">
          <mxGeometry x="862" y="2540" width="80" height="30" as="geometry" />
        </mxCell>
        <mxCell id="SPcnOODWbMuNbma2HMpf-24" value="D3D12" style="whiteSpace=wrap;html=1;fillColor=#CCCCCC;" vertex="1" parent="1">
          <mxGeometry x="581" y="2540" width="80" height="30" as="geometry" />
        </mxCell>
        <mxCell id="SPcnOODWbMuNbma2HMpf-25" value="&lt;font style=&quot;font-size: 24px&quot; color=&quot;#000000&quot;&gt;&lt;b&gt;...&lt;/b&gt;&lt;/font&gt;" style="text;html=1;align=center;verticalAlign=middle;resizable=0;points=[];autosize=1;strokeColor=none;fillColor=none;fontColor=#3399FF;" vertex="1" parent="1">
          <mxGeometry x="608" y="2210" width="40" height="20" as="geometry" />
        </mxCell>
        <mxCell id="SPcnOODWbMuNbma2HMpf-26" value="&lt;font style=&quot;font-size: 24px&quot; color=&quot;#000000&quot;&gt;&lt;b&gt;...&lt;/b&gt;&lt;/font&gt;" style="text;html=1;align=center;verticalAlign=middle;resizable=0;points=[];autosize=1;strokeColor=none;fillColor=none;fontColor=#3399FF;" vertex="1" parent="1">
          <mxGeometry x="783" y="2340" width="40" height="20" as="geometry" />
        </mxCell>
        <mxCell id="SPcnOODWbMuNbma2HMpf-27" value="&lt;font style=&quot;font-size: 24px&quot; color=&quot;#000000&quot;&gt;&lt;b&gt;...&lt;/b&gt;&lt;/font&gt;" style="text;html=1;align=center;verticalAlign=middle;resizable=0;points=[];autosize=1;strokeColor=none;fillColor=none;fontColor=#3399FF;" vertex="1" parent="1">
          <mxGeometry x="608" y="2340" width="40" height="20" as="geometry" />
        </mxCell>
        <mxCell id="SPcnOODWbMuNbma2HMpf-28" value="&lt;font style=&quot;font-size: 24px&quot; color=&quot;#000000&quot;&gt;&lt;b&gt;...&lt;/b&gt;&lt;/font&gt;" style="text;html=1;align=center;verticalAlign=middle;resizable=0;points=[];autosize=1;strokeColor=none;fillColor=none;fontColor=#3399FF;" vertex="1" parent="1">
          <mxGeometry x="783" y="2210" width="40" height="20" as="geometry" />
        </mxCell>
      </root>
    </mxGraphModel>
  </diagram>
</mxfile>
